<?xml version="1.0" encoding="utf-8"?>
<!-- Svg Vector Icons : http://www.onlinewebfonts.com/icon -->
<!DOCTYPE svg PUBLIC "-//W3C//DTD SVG 1.1//EN" "http://www.w3.org/Graphics/SVG/1.1/DTD/svg11.dtd">
<svg version="1.1" xmlns="http://www.w3.org/2000/svg" xmlns:xlink="http://www.w3.org/1999/xlink" x="0px" y="0px" viewBox="0 0 1000 1000" enable-background="new 0 0 1000 1000" xml:space="preserve">
<metadata> Svg Vector Icons : http://www.onlinewebfonts.com/icon </metadata>
<g><path d="M990,500c0,127.2-103.4,230.6-230.6,230.6c-69,0-133.2-30.7-177.2-83.7l-0.1,0.1l-0.8-1c-0.6-0.8-1.5-1.3-2.2-2.2l0.2-0.2L369.8,385.2c-32.8-36.9-79.9-58.1-129.2-58.1c-95.3,0-172.9,77.6-172.9,172.9c0,95.3,77.6,172.9,172.9,172.9c52.7,0,102-23.6,135-64.9l0.5,0.4l47.1-58.3l44.8,36.2l-47.4,58.7l-0.6-0.5c-44,54.6-109.4,86-179.5,86C113.4,730.6,10,627.2,10,500c0-127.2,103.4-230.6,230.6-230.6c64.6,0,126,27.5,169.7,75l0.5-0.3l2.4,3l213.2,262.9c33,39.9,81.2,63,133.1,63c95.3,0,172.9-77.6,172.9-172.9s-77.6-172.9-172.9-172.9c-48.8,0-95.1,20.9-128,57l-54.6,67.7l-44.8-36.2l54.6-67.7l-0.2-0.2c43.8-49.7,106.9-78.3,173.1-78.3C886.6,269.4,990,372.8,990,500L990,500z"/></g>
</svg>