<svg version="1.2" xmlns="http://www.w3.org/2000/svg" viewBox="0 0 400 400" width="400" height="400">
	<title>Instagram_Glyph_White-svg</title>
	<defs>
		<linearGradient id="g1" x1="-26" y1="246.2" x2="338" y2="9.8" gradientUnits="userSpaceOnUse">
			<stop offset="0" stop-color="#ffd600"/>
			<stop offset=".389" stop-color="#ff0069"/>
			<stop offset=".705" stop-color="#d300c5"/>
			<stop offset="1" stop-color="#7638fa"/>
		</linearGradient>
	</defs>
	<style>
		.s0 { fill: url(#g1) } 
		.s1 { fill: #ffffff } 
	</style>
	<path id="레이어 1" class="s0" d="m200 400c-110.6 0-200-89.4-200-200 0-110.6 89.4-200 200-200 110.6 0 200 89.4 200 200 0 110.6-89.4 200-200 200z"/>
	<path id="Layer" fill-rule="evenodd" class="s1" d="m199.8 100.2c27.1 0 30.5 0.1 41.1 0.6 10.7 0.4 17.9 2.1 24.3 4.5 6.5 2.6 12.1 6 17.7 11.5 5.5 5.6 8.9 11.1 11.5 17.7 2.5 6.3 4.2 13.5 4.7 24.2 0.5 10.6 0.6 14 0.7 41.1 0 27.1-0.1 30.5-0.6 41.2-0.4 10.6-2.1 17.8-4.5 24.2-2.6 6.5-6 12.1-11.5 17.7-5.5 5.5-11.1 8.9-17.7 11.5-6.3 2.5-13.5 4.2-24.2 4.7-10.6 0.5-14 0.6-41.1 0.7-27.1 0-30.5-0.1-41.1-0.6-10.7-0.4-17.9-2.1-24.3-4.5-6.5-2.6-12.1-6-17.7-11.5-5.5-5.5-8.9-11.1-11.5-17.7-2.5-6.3-4.2-13.6-4.7-24.2-0.5-10.6-0.6-14-0.7-41.1 0-27.1 0.1-30.5 0.6-41.1 0.4-10.7 2.1-17.9 4.5-24.3 2.6-6.5 6-12.1 11.5-17.7 5.6-5.5 11.1-8.9 17.7-11.5 6.3-2.5 13.6-4.2 24.2-4.7 10.6-0.5 14-0.6 41.1-0.7zm-40 181.1c10.6 0.5 13.7 0.6 40.4 0.5 26.6-0.1 29.8-0.2 40.3-0.7 9.7-0.4 15-2.1 18.5-3.4 4.6-1.8 8-4 11.4-7.5 3.5-3.5 5.7-6.8 7.5-11.5 1.3-3.5 3-8.8 3.4-18.5 0.4-10.5 0.5-13.7 0.5-40.3-0.1-26.7-0.2-29.8-0.7-40.4-0.4-9.7-2.1-15-3.4-18.5-1.9-4.6-4-7.9-7.5-11.4-3.5-3.5-6.8-5.7-11.5-7.5-3.5-1.3-8.8-2.9-18.5-3.4-10.6-0.4-13.7-0.5-40.4-0.5-26.6 0.1-29.7 0.2-40.3 0.7-9.7 0.5-15 2.1-18.5 3.5-4.6 1.8-8 3.9-11.4 7.4-3.5 3.5-5.7 6.9-7.5 11.5-1.3 3.5-3 8.8-3.4 18.6-0.4 10.5-0.5 13.6-0.5 40.3 0.1 26.6 0.2 29.8 0.7 40.3 0.4 9.7 2.1 15 3.4 18.5 1.9 4.7 4 8 7.5 11.5 3.5 3.4 6.8 5.6 11.5 7.4 3.5 1.4 8.8 3 18.5 3.4zm82.3-139.2c0.6-1.5 1.5-2.8 2.6-3.9 1.1-1.1 2.4-2 3.9-2.6 1.4-0.6 3-0.9 4.5-0.9 4.9 0 9.2 2.9 11.1 7.3 1.9 4.5 0.9 9.7-2.6 13.1-3.4 3.4-8.5 4.5-13 2.6-4.5-1.8-7.4-6.2-7.4-11 0-1.6 0.3-3.2 0.9-4.6zm-42.2 6.7c28.3-0.1 51.3 22.8 51.3 51.1 0.1 28.3-22.8 51.3-51.1 51.3-28.3 0.1-51.3-22.8-51.3-51.1-0.1-28.3 22.8-51.3 51.1-51.3zm-30.6 64c1.7 4 4.1 7.7 7.2 10.8 3.1 3 6.8 5.5 10.8 7.2 4.1 1.6 8.4 2.5 12.8 2.5 13.4-0.1 25.5-8.2 30.7-20.6 5.1-12.5 2.2-26.8-7.3-36.3-9.6-9.5-23.9-12.3-36.3-7.1-12.4 5.2-20.5 17.3-20.5 30.8 0 4.3 0.9 8.7 2.6 12.7z"/>
</svg>