<?xml version="1.0" encoding="utf-8"?>
<!-- Svg Vector Icons : http://www.onlinewebfonts.com/icon -->
<!DOCTYPE svg PUBLIC "-//W3C//DTD SVG 1.1//EN" "http://www.w3.org/Graphics/SVG/1.1/DTD/svg11.dtd">
<svg version="1.1" xmlns="http://www.w3.org/2000/svg" xmlns:xlink="http://www.w3.org/1999/xlink" x="0px" y="0px" viewBox="0 0 1000 1000" enable-background="new 0 0 1000 1000" xml:space="preserve">
<metadata> Svg Vector Icons : http://www.onlinewebfonts.com/icon </metadata>
<g><g transform="translate(0.000000,511.000000) scale(0.100000,-0.100000)"><path d="M3239.3,4964.1c-140.3-68.9-178.6-173.5-178.6-495v-275.6h-171c-97,0-216.9-12.8-273-28.1c-127.6-35.7-301.1-209.2-341.9-344.5c-40.8-140.3-45.9-8083.9-2.6-8237c35.7-127.6,209.2-301.1,344.5-341.9c140.4-40.8,4616.1-43.4,4766.7-2.6c127.6,35.7,301.1,209.2,341.9,344.5c40.8,140.4,45.9,8083.9,2.6,8237c-35.7,127.6-209.2,301.1-344.5,341.9c-58.7,15.3-181.2,30.6-275.6,30.6h-168.4V4469c0,321.5-38.3,426.1-178.6,495c-81.7,43.4-219.4,45.9-1760.7,45.9C3458.7,5010,3321,5007.5,3239.3,4964.1z M6531,4193.4v-408.3h367.5c301.1,0,375.1-7.6,408.3-40.8c35.7-35.7,40.8-436.3,40.8-4042s-5.1-4006.2-40.8-4042c-35.7-35.7-280.7-40.8-2306.8-40.8c-2026.1,0-2271,5.1-2306.8,40.8c-35.7,35.7-40.8,436.4-40.8,4042s5.1,4006.2,40.8,4042c33.2,33.2,107.2,40.8,408.3,40.8H3469v408.3v408.3h1531h1531V4193.4z"/><path d="M5489.9,2672.6C5431.3,2631.8,3816,233.1,3777.7,126c-28.1-68.9,23-204.1,86.8-229.7c23-7.7,329.2-15.3,678.8-15.3c423.6,0,635.4-7.7,635.4-25.5c0-28.1-1002.8-1482.6-1013-1472.4c-2.5,5.1-23,188.8-45.9,413.4c-25.5,242.4-56.1,431.3-79.1,464.4c-71.4,112.3-257.7,107.2-331.7-5.1c-38.3-58.7-35.7-119.9,40.8-847.2c71.4-701.7,84.2-791,132.7-842.1c30.6-33.2,84.2-58.7,125-58.7c94.4,0,1426.4,599.7,1485.1,666c84.2,104.6,46,250.1-81.6,301.1c-79.1,33.2-89.3,30.6-750.2-262.8c-81.7-38.3-140.3-56.1-132.7-40.8c10.2,15.3,301.1,433.8,645.6,926.3c852.3,1219.7,859.9,1148.3-135.2,1166.1l-676.2,12.8l727.2,1092.1c400.6,599.7,727.2,1107.5,727.2,1130.4c0,61.2-71.4,181.2-114.8,199C5630.3,2723.6,5548.6,2716,5489.9,2672.6z"/></g></g>
</svg>